<?xml version="1.0" encoding="UTF-8" standalone="no"?>
<!-- Created with Inkscape (http://www.inkscape.org/) -->

<svg
   xmlns:dc="http://purl.org/dc/elements/1.1/"
   xmlns:cc="http://creativecommons.org/ns#"
   xmlns:rdf="http://www.w3.org/1999/02/22-rdf-syntax-ns#"
   xmlns:svg="http://www.w3.org/2000/svg"
   xmlns="http://www.w3.org/2000/svg"
   xmlns:sodipodi="http://sodipodi.sourceforge.net/DTD/sodipodi-0.dtd"
   xmlns:inkscape="http://www.inkscape.org/namespaces/inkscape"
   version="1.1"
   id="svg4709"
   width="181"
   height="209"
   viewBox="0 0 181 209"
   sodipodi:docname="logo.svg"
   inkscape:version="0.92.4 (5da689c313, 2019-01-14)">
  <metadata
     id="metadata4715">
    <rdf:RDF>
      <cc:Work
         rdf:about="">
        <dc:format>image/svg+xml</dc:format>
        <dc:type
           rdf:resource="http://purl.org/dc/dcmitype/StillImage" />
        <dc:title></dc:title>
      </cc:Work>
    </rdf:RDF>
  </metadata>
  <defs
     id="defs4713" />
  <sodipodi:namedview
     pagecolor="#ffffff"
     bordercolor="#666666"
     borderopacity="1"
     objecttolerance="10"
     gridtolerance="10"
     guidetolerance="10"
     inkscape:pageopacity="0"
     inkscape:pageshadow="2"
     inkscape:window-width="2736"
     inkscape:window-height="1699"
     id="namedview4711"
     showgrid="false"
     inkscape:zoom="4.5167464"
     inkscape:cx="148.25779"
     inkscape:cy="98.512205"
     inkscape:window-x="-13"
     inkscape:window-y="-13"
     inkscape:window-maximized="1"
     inkscape:current-layer="svg4709" />
  <g
     id="g4719"
     transform="translate(0.31310445)">
    <path
       style="fill:#f8f8f8"
       d="M 0,104.5 V 0 H 90.5 181 V 104.5 209 H 90.5 0 Z"
       id="path4735"
       inkscape:connector-curvature="0" />
    <path
       style="fill:#fc7d37"
       d="M 44.128046,204.75 C 43.000344,202.4125 33.012304,179.8 21.932402,154.5 6.8033934,119.95421 1.7856575,107.50398 1.7812282,104.5 1.7771817,101.75554 3.7254932,96.105596 7.9882951,86.5 11.405426,78.8 20.273477,58.55 27.695075,41.5 35.116674,24.45 42.30407,8.1375 43.667066,5.25 L 46.145242,0 H 91.950176 C 127.42096,0 137.96937,0.28201508 138.70478,1.25 140.94682,4.2010666 179.4,101.76999 179.4,104.50774 c 0,2.73445 -38.4521,100.28159 -40.69706,103.24226 -0.734,0.968 -11.27767,1.25 -46.736178,1.25 H 46.178413 Z"
       id="path4733"
       inkscape:connector-curvature="0" />
    <path
       style="fill:#dc744f"
       d="M 44.128046,204.75 C 43.000344,202.4125 33.012304,179.8 21.932402,154.5 6.8033934,119.95421 1.7856575,107.50398 1.7812282,104.5 1.7771817,101.75554 3.7254932,96.105596 7.9882951,86.5 11.405426,78.8 20.273477,58.55 27.695075,41.5 35.116674,24.45 42.30407,8.1375 43.667066,5.25 L 46.145242,0 H 91.950176 C 127.42096,0 137.96937,0.28201508 138.70478,1.25 140.94682,4.2010666 179.4,101.76999 179.4,104.50774 c 0,2.73445 -38.4521,100.28159 -40.69706,103.24226 -0.734,0.968 -11.27767,1.25 -46.736178,1.25 H 46.178413 Z m 62.332504,-56.95767 c 12.66189,-6.37409 23.63092,-21.1941 29.08221,-39.29233 1.44894,-4.81046 1.8042,-9.469485 1.79191,-23.5 -0.014,-16.003733 -0.23139,-18.155506 -2.54232,-25.166651 C 129.24585,43.00583 118.18091,28.675876 106.16715,22.761525 100.16856,19.808428 98.686988,19.5 90.5,19.5 82.302354,19.5 80.835659,19.80635 74.794422,22.780442 62.442352,28.861346 51.258201,43.628342 45.847891,61 c -2.086449,6.699263 -2.329539,9.368386 -2.276868,25 0.05691,16.88864 0.166208,17.80607 3.128707,26.26121 7.107359,20.28481 21.202325,35.69219 34.559851,37.7778 7.97261,1.24482 20.480259,0.12976 25.200969,-2.24668 z m -2.93416,-9.74963 c -0.32541,-0.52652 1.23911,-4.5985 3.4767,-9.04884 l 4.06834,-8.09154 5.63528,0.29884 c 3.09941,0.16436 5.79522,0.7845 5.9907,1.37809 0.54904,1.66719 -5.26242,8.42915 -10.85724,12.63302 -5.10761,3.83779 -7.24208,4.56447 -8.31378,2.83043 z M 67.758211,134.43954 C 62.558206,130.38825 57.48902,123.6358 58.463709,122.05872 58.823588,121.47642 61.352838,121 64.084264,121 h 4.96623 l 3.467054,7.60795 c 4.761213,10.44779 3.363684,12.16018 -4.759337,5.83159 z m 11.900718,-4.32487 C 78.196518,127.42774 77,124.25309 77,123.05988 c 0,-1.96424 0.449327,-2.14063 4.75,-1.86467 l 4.75,0.30479 0.29569,6.75 c 0.286076,6.53052 0.218085,6.75 -2.091071,6.75 -1.827131,0 -3.010207,-1.14548 -5.04569,-4.88533 z m 12.94806,3.30354 c -0.78352,-2.04182 -0.78352,-8.7946 0,-10.83642 0.439057,-1.14417 1.960704,-1.58179 5.5,-1.58179 4.394141,0 4.893011,0.2273 4.893011,2.22935 0,2.98509 -6.075886,11.76628 -8.143011,11.76872 -0.903656,10e-4 -1.916156,-0.70987 -2.25,-1.57986 z M 50.445685,105.46116 C 49.545772,102.36557 48.739846,97.732925 48.654739,95.166403 L 48.5,90.5 55.691997,90.207361 C 64.45613,89.850753 64.662618,90.108185 65.150951,102 l 0.349049,8.5 -6.709054,0.29476 -6.709054,0.29475 z m 22.12618,4.65512 c -1.059242,-1.71389 -2.879638,-16.871852 -2.229649,-18.565697 0.520503,-1.35641 1.951632,-1.585407 8.392645,-1.34292 L 86.5,90.5 v 10 10 l -6.663957,0.29373 c -3.665177,0.16155 -6.934057,-0.1433 -7.264178,-0.67745 z m 20.035124,-0.69807 C 91.607727,106.81418 91.921168,94.015816 93.035184,91.934259 93.926144,90.269485 95.184415,90 102.06657,90 c 6.24892,0 8.12427,0.33375 8.58231,1.527368 0.79772,2.078841 -1.41897,16.490682 -2.79066,18.143462 -1.68737,2.03316 -14.455249,1.82168 -15.251231,-0.25262 z M 115.48706,102.25 C 116.48645,90.165133 116.61426,90 124.9678,90 c 5.78627,0 6.99028,0.292558 7.47381,1.816043 0.61039,1.923167 -0.75217,10.495517 -2.53268,15.933957 L 128.8449,111 h -7.04073 -7.04072 z M 49.016357,79.51971 C 47.608115,77.822881 49.067822,67.166779 51.508753,61.32481 52.885216,58.030468 52.958953,58 59.555135,58 h 6.657189 L 65.48309,67.25 C 64.407758,80.890079 64.337122,81 56.647196,81 52.214094,81 49.867021,80.544696 49.016357,79.51971 Z M 70.30599,79.355014 c -0.879119,-2.290948 1.37432,-18.264885 2.82284,-20.010245 0.849353,-1.023407 2.926386,-1.348201 7.279799,-1.138369 L 86.5,58.5 l 0.287447,9.852416 c 0.186886,6.405603 -0.118334,10.341352 -0.872444,11.25 -1.781819,2.146959 -14.769202,1.94111 -15.609013,-0.247402 z M 93.035184,79.065741 C 91.925226,76.991767 91.600266,62.205265 92.606989,59.581787 93.079541,58.350337 94.746136,58 100.13174,58 c 8.05469,0 7.88172,-0.214409 9.89505,12.266138 C 111.66103,80.396735 111.1769,81 101.41274,81 95.177007,81 93.914345,80.708469 93.035184,79.065741 Z M 117.07155,78.75 C 115.77773,75.462771 113.78944,60.149711 114.50591,58.990436 114.84258,58.445696 118.00064,58 121.52383,58 c 7.5604,0 7.51085,-0.05779 10.03585,11.704196 C 133.807,80.172674 133.2794,81 124.35612,81 c -5.70694,0 -6.49477,-0.24334 -7.28457,-2.25 z M 60.053051,47.563922 C 58.404346,45.577355 59.813325,43.252262 66.080377,37.617643 70.777816,33.394241 76,31.442465 76,33.910212 c 0,1.72781 -5.919715,13.422193 -7.208084,14.239553 -2.092109,1.327263 -7.449181,0.968132 -8.738865,-0.585843 z m 17.983205,-0.02024 c -0.969749,-1.168477 -0.672321,-2.441699 1.504837,-6.441854 2.665197,-4.896846 4.747038,-6.659825 6.549149,-5.546059 C 87.433682,36.386064 87.196218,46.403782 85.8,47.8 84.141315,49.458685 79.49835,49.305401 78.036256,47.543686 Z M 93.571429,47.428571 C 91.822713,45.679856 91.450828,38.409514 92.986846,36 c 1.369933,-2.148981 3.860279,-0.35372 7.397904,5.333063 2.3795,3.825071 2.66456,4.902597 1.62756,6.152108 -1.6389,1.974752 -6.441735,1.942547 -8.440881,-0.0566 z M 111.33519,48.22832 C 110.03743,47.402681 103,34.533236 103,32.985637 c 0,-2.391554 5.29437,-0.683378 10.11767,3.264363 7.27116,5.951253 9.57516,9.210269 7.92066,11.203819 -1.32866,1.600939 -7.61537,2.102742 -9.70314,0.774501 z"
       id="path4731"
       inkscape:connector-curvature="0" />
    <path
       style="fill:#9e4daa"
       d="M 44.128046,204.75 C 43.000344,202.4125 33.012304,179.8 21.932402,154.5 6.8033934,119.95421 1.7856575,107.50398 1.7812282,104.5 1.7771817,101.75554 3.7254932,96.105596 7.9882951,86.5 11.405426,78.8 20.273477,58.55 27.695075,41.5 35.116674,24.45 42.30407,8.1375 43.667066,5.25 L 46.145242,0 H 91.950176 C 127.42096,0 137.96937,0.28201508 138.70478,1.25 140.94682,4.2010666 179.4,101.76999 179.4,104.50774 c 0,2.73445 -38.4521,100.28159 -40.69706,103.24226 -0.734,0.968 -11.27767,1.25 -46.736178,1.25 H 46.178413 Z M 107.4494,148.94766 C 118.37851,143.7466 130.10149,128.58837 135.63704,112.5 138.10701,105.32138 138.43,102.8059 138.78289,88 139.2558,68.158721 138.074,61.801534 131.40125,48.292467 123.40306,32.10004 111.1589,21.256908 97.207563,18.011357 79.959143,13.998793 60.472671,26.29514 49.571966,48.070356 43.022315,61.153917 41.675402,68.632058 42.234,88.811169 c 0.426277,15.399071 0.692184,17.319881 3.440704,24.854311 6.820552,18.69696 19.708874,33.46941 32.320737,37.04566 7.31713,2.07487 23.413449,1.11114 29.453959,-1.76348 z M 105,136.55501 c 0,-0.24475 1.5933,-3.61975 3.54066,-7.5 3.47739,-6.92894 3.61036,-7.05501 7.44098,-7.05501 5.10663,0 5.75148,1.34002 2.5028,5.20086 C 113.67575,132.91566 105,138.93402 105,136.55501 Z m -36.599351,-3.49654 c -5.040695,-3.71315 -8.930784,-8.92834 -7.630032,-10.22909 0.536287,-0.53628 2.431125,-0.82979 4.210751,-0.65222 2.901336,0.28948 3.527325,0.96697 6.058077,6.55652 1.552316,3.42852 2.471271,6.45068 2.042123,6.71591 -0.429149,0.26523 -2.535563,-0.81078 -4.680919,-2.39112 z M 82.275067,131.7833 C 80.174604,129.15378 77.938505,123.90852 78.51815,122.97063 78.848086,122.43678 80.432903,122 82.039965,122 c 2.243165,0 3.060645,0.55268 3.519065,2.37917 1.377007,5.48644 -0.833926,10.47128 -3.283963,7.40413 z M 94.19774,127.75 c 0.302258,-5.24997 0.302282,-5.25 3.718927,-5.25 1.879166,0 3.576933,0.48081 3.772823,1.06846 0.44835,1.34507 -5.337299,9.43154 -6.748022,9.43154 -0.633541,0 -0.926802,-2.07014 -0.743728,-5.25 z M 53.041248,108.5497 c -1.561984,-1.88207 -3.584066,-13.692755 -2.726792,-15.926777 0.540258,-1.40789 1.716387,-1.668474 6.423448,-1.423188 L 62.5,91.5 l 1.195923,8.432991 c 0.657757,4.638149 0.968699,8.800649 0.690983,9.249999 -0.888682,1.43792 -10.051158,0.92649 -11.345658,-0.63329 z m 20.540937,-0.19613 C 72.073281,104.42143 71.117666,93.563147 72.169022,92.296341 73.534963,90.650483 83.17694,90.57694 84.8,92.2 c 1.245685,1.245685 1.688741,13.36279 0.593011,16.21821 -0.883877,2.30335 -10.923229,2.24841 -11.810826,-0.0646 z m 20.841457,0.30804 c -0.282474,-0.73612 -0.380851,-4.89862 -0.218615,-9.250001 L 94.5,91.5 l 6.33731,-0.299984 c 8.48985,-0.401876 9.03751,0.183611 7.92671,8.47431 C 107.46274,109.38679 106.96801,110 100.43343,110 c -3.668059,0 -5.667029,-0.44517 -6.009788,-1.33839 z m 21.995378,-0.012 c -0.28501,-0.74273 0.0666,-4.90523 0.78139,-9.249997 L 118.5,91.5 h 6 c 5.63927,0 6.02121,0.150304 6.35274,2.5 0.42374,3.00318 -1.66717,12.99535 -3.08651,14.75 -1.39882,1.7293 -10.67658,1.64719 -11.34721,-0.10043 z M 51.100716,79.083408 c -1.638936,-1.037705 -0.998276,-9.178776 1.230999,-15.642694 1.301715,-3.774403 1.5614,-3.953818 6.15319,-4.251203 2.636764,-0.170769 5.207206,0.1026 5.712093,0.607487 1.182145,1.182145 -1.137878,18.437114 -2.6135,19.437689 -1.511459,1.024875 -8.791101,0.919821 -10.482782,-0.151279 z m 21.560558,-0.341823 c -1.554848,-1.136933 -1.608925,-2.029895 -0.560176,-9.25 0.638445,-4.395372 1.60698,-8.554085 2.1523,-9.241585 1.499959,-1.891039 10.388222,-1.626307 11.139613,0.331787 C 85.726855,61.451771 86,65.710938 86,70.046604 c 0,6.770263 -0.273039,8.029155 -1.934259,8.918212 -2.670296,1.4291 -9.322853,1.298882 -11.404467,-0.223231 z m 22.548998,0.409532 c -0.939471,-0.59604 -1.211046,-3.37552 -1,-10.234687 L 94.5,59.5 l 5.75571,-0.300074 c 5.40661,-0.281874 5.81595,-0.141652 6.74877,2.311856 0.54618,1.436563 1.28727,5.777602 1.64687,9.646755 0.50997,5.487097 0.34524,7.230193 -0.74877,7.922831 -1.76142,1.115196 -10.964769,1.165772 -12.692308,0.06975 z m 24.151058,0.08357 C 118.24643,78.51534 116,66.668679 116,61.508543 c 0,-2.538932 0.15047,-2.600369 5.65375,-2.308447 5.59889,0.296994 5.66694,0.338138 7.01368,4.240618 2.22986,6.461543 2.87113,14.604771 1.23185,15.642694 -1.69196,1.071277 -8.95057,1.175479 -10.53795,0.151279 z M 61,45.636842 C 61,43.818324 70.498396,35 72.457159,35 c 2.006438,0 2.003473,0.01648 -1.165477,6.477846 C 68.717285,46.726941 68.395874,47 64.791682,47 62.257134,47 61,46.548044 61,45.636842 Z m 18,0.313498 c 0,-1.62727 2.697195,-6.454145 4.392862,-7.861423 1.287483,-1.068516 1.625816,-0.862681 2.174345,1.322832 C 85.924492,40.835287 85.934459,43.125 85.589356,44.5 85.095612,46.467234 84.326636,47 81.980948,47 80.341427,47 79,46.527653 79,45.95034 Z M 94,42 c 0,-2.75 0.433777,-5 0.963949,-5 C 96.160143,37 101,44.001644 101,45.732135 101,46.514457 99.659637,47 97.5,47 H 94 Z m 14.47968,-0.75 c -1.61532,-3.1625 -3.09657,-6.0875 -3.29165,-6.5 C 104.99295,34.3375 105.68101,34 106.71705,34 109.00248,34 120,43.587565 120,45.579987 120,46.586087 118.74904,47 115.70832,47 c -4.21748,0 -4.34247,-0.09942 -7.22864,-5.75 z"
       id="path4729"
       inkscape:connector-curvature="0" />
    <path
       style="fill:#6351ad"
       d="M 37.072147,187.24456 C 31.886828,175.28505 21.654328,151.80037 14.333259,135.05639 L 1.0222247,104.61277 19.135159,63.056386 C 29.097273,40.200374 39.312247,16.6625 41.835102,10.75 L 46.422109,0 h 45.656121 45.65612 l 20.83075,51.697574 c 11.45691,28.433666 20.76182,52.396166 20.67757,53.249996 -0.0842,0.85384 -9.39831,24.46085 -20.69792,52.46002 C 147.24514,185.40677 138,208.46927 138,208.65759 c 0,0.18833 -20.5875,0.33996 -45.75,0.33697 l -45.75,-0.005 -9.427853,-21.74457 z m 75.676363,-0.39307 c 0.75306,-0.75306 0.9488,-3.2871 0.56849,-7.35971 -0.38519,-4.12498 -0.19996,-6.44608 0.5515,-6.91051 1.32886,-0.82128 1.48503,-6.47486 0.23343,-8.45058 -0.72732,-1.14812 -1.65367,-1.10535 -5.73468,0.26477 -7.3034,2.45197 -7.6135,2.77497 -6.80446,7.08755 0.46082,2.45636 1.35685,3.94472 2.56503,4.26067 1.17141,0.30633 2.25076,2.01207 2.92402,4.62094 1.84761,7.15945 2.05428,7.63538 3.31555,7.63538 0.67793,0 1.74944,-0.51683 2.38112,-1.14851 z M 71.846504,185.25 c 0.50428,-0.9625 1.24421,-3.325 1.64429,-5.25 0.40008,-1.925 1.76757,-4.4 3.038867,-5.5 1.271297,-1.1 2.603734,-3.44329 2.960971,-5.2073 0.605385,-2.98935 0.389936,-3.31855 -3.170555,-4.84443 -2.101042,-0.90042 -5.141594,-1.70713 -6.756781,-1.7927 -2.560643,-0.13565 -3.02587,0.26644 -3.633017,3.13998 -0.48907,2.3147 -0.261232,3.73064 0.765508,4.75738 1.144824,1.14482 1.308453,2.89395 0.754569,8.06604 -0.547776,5.11506 -0.396429,6.8011 0.671196,7.47731 2.005185,1.27006 2.698695,1.1125 3.724952,-0.84628 z M 44.456898,157.13941 C 47.505604,153.36609 50,149.59094 50,148.75019 c 0,-0.84074 -0.841052,-2.56728 -1.869005,-3.83675 l -1.869006,-2.30812 -2.880994,4.15939 C 40.55021,150.85161 38,152.24852 38,149.71223 c 0,-0.70828 1.331712,-2.84578 2.959359,-4.75 C 42.587007,143.058 43.922036,140.825 43.92609,140 c 0.0083,-1.68567 -3.294461,-6.00273 -4.586383,-5.99493 -0.461839,0.003 -3.028297,3.47953 -5.703241,7.72608 -4.105143,6.51704 -4.720857,8.11457 -3.94855,10.24493 0.703614,1.94087 1.544708,2.47956 3.640954,2.3319 2.503328,-0.17633 2.707541,0.0817 2.500314,3.15868 -0.186181,2.76453 1.400271,6.53334 2.750159,6.53334 0.183949,0 2.828849,-3.08727 5.877555,-6.86059 z m 100.622912,0.44989 c 1.1068,-1.87588 2.66662,-3.66176 3.46628,-3.96861 2.12702,-0.81622 1.77458,-4.93933 -0.54609,-6.38862 -1.28679,-0.80361 -2,-2.33202 -2,-4.286 C 146,139.85042 142.26061,135 139.87404,135 138.11042,135 130,143.74389 130,145.64525 130,147.93105 139.89731,161 141.62838,161 c 0.79149,0 2.34463,-1.53481 3.45143,-3.4107 z m -36.85236,-8.19193 c 11.33654,-5.71752 23.21127,-21.67643 28.94279,-38.89737 2.10593,-6.32747 2.32857,-8.7774 2.3174,-25.5 -0.0121,-18.164559 -0.069,-18.658858 -3.13473,-27.261215 C 132.31139,46.398512 128.00243,39.248269 120.13421,30.825648 115.66778,26.044505 111.79602,23.03993 107.15782,20.755659 101.02772,17.736643 99.817516,17.5 90.508231,17.5 c -9.307601,0 -10.5212,0.23719 -16.65782,3.255659 C 61.74048,26.712271 49.82172,41.920491 44.26998,58.5 c -2.52593,7.543343 -2.680132,9.084559 -2.701399,27 -0.02164,18.23251 0.08993,19.32315 2.762198,27 7.145942,20.52876 22.260983,37.09862 36.169221,39.65049 2.2,0.40366 8.152353,0.54765 13.22745,0.31999 7.4675,-0.33499 10.23308,-0.92112 14.5,-3.07311 z M 107,135.07184 c 0,-0.56514 1.21874,-3.5125 2.70832,-6.54969 2.5744,-5.24909 2.89581,-5.52215 6.5,-5.52215 2.08542,0 3.79168,0.38012 3.79168,0.84471 0,1.00505 -9.09546,10.06958 -11.39549,11.35674 C 107.59026,135.76905 107,135.72138 107,135.07184 Z M 65.578947,129.42105 C 63.060526,126.90263 61,124.42763 61,123.92105 61,123.41447 62.526139,123 64.39142,123 c 3.53861,0 3.343123,-0.26019 7.325293,9.75 1.027169,2.58205 -1.712908,1.09591 -6.137766,-3.32895 z m 15.441377,-1.38121 c -2.583846,-5.06476 -2.558328,-5.23459 0.729676,-4.85626 2.460718,0.28313 2.782347,0.76349 3.057498,4.56642 0.387894,5.36117 -1.140306,5.47813 -3.787174,0.28984 z M 95,127.5 c 0,-4.33333 0.111111,-4.5 3,-4.5 1.65,0 3,0.34554 3,0.76787 C 101,124.71791 96.102848,132 95.463949,132 95.208777,132 95,129.975 95,127.5 Z M 53.510263,108.01661 C 52.485839,106.35905 50.068768,93.697748 50.60968,92.822533 50.889275,92.37014 53.526922,92 56.471119,92 h 5.353085 l 0.561134,3.75 c 0.308623,2.0625 0.849272,5.8875 1.201442,8.5 l 0.640308,4.75 h -5.054527 c -2.77999,0 -5.328024,-0.44253 -5.662298,-0.98339 z m 20.55239,-1.35182 c -0.511296,-1.34481 -1.072059,-5.08204 -1.246141,-8.304949 L 72.5,92.5 h 6 6 v 8 8 l -4.753859,0.30495 c -4.256123,0.27302 -4.851193,0.0489 -5.683488,-2.14016 z M 95,100.5499 V 92 h 6.53138 c 4.30406,0 6.69405,0.426275 7.00837,1.25 0.26233,0.6875 -0.0932,4.4 -0.79017,8.25 l -1.26714,7 -5.74122,0.2999 L 95,109.09981 Z m 22.49488,1.75533 c 1.05193,-10.750378 0.82958,-10.444225 7.33757,-10.102674 L 130.5,92.5 l -0.33778,3.833899 c -0.18577,2.108645 -0.87851,5.708641 -1.53941,8.000001 -1.19719,4.15069 -1.22123,4.16723 -6.49773,4.47133 l -5.2961,0.30522 z M 50.554291,78.087844 C 50.006729,77.201871 52.187888,65.272539 53.541501,61.75 54.056673,60.409358 55.37271,60 59.167541,60 h 4.953563 l -0.69844,7.25 C 62.351348,78.370556 61.958205,79 56.083768,79 53.352614,79 50.86435,78.58953 50.554291,78.087844 Z M 72.402256,77.605879 C 71.702787,75.783092 73.772851,61.827149 74.9116,60.6884 c 0.44917,-0.44917 2.790312,-0.675312 5.202536,-0.502536 L 84.5,60.5 v 9 9 l -5.762096,0.300265 c -4.389981,0.228763 -5.898675,-0.05565 -6.335648,-1.194386 z M 95.70896,78.375627 C 95.319032,77.985699 95,73.691667 95,68.833333 V 60 h 5.4291 5.4291 l 1.04254,5.25 c 0.57339,2.8875 1.1678,7.05 1.3209,9.25 l 0.27836,4 -6.04104,0.292294 c -3.322572,0.160761 -6.360072,-0.02674 -6.75,-0.416667 z M 119.2567,77.75 c -0.5435,-0.6875 -1.2917,-4.341781 -1.66265,-8.120624 -0.37096,-3.778843 -0.76887,-7.378843 -0.88426,-8 -0.12844,-0.691434 1.80581,-1.245883 4.98808,-1.429828 l 5.19787,-0.300451 1.06344,3.949296 c 1.69964,6.31199 2.7295,12.585557 2.28496,13.919186 -0.54594,1.637812 -9.69033,1.623182 -10.98744,-0.01758 z M 62.403429,45.843744 c -0.761929,-1.232826 8.284491,-10.489157 9.279169,-9.49448 0.76644,0.766441 -2.567842,8.956371 -4.023362,9.882502 -1.74913,1.112951 -4.451456,0.913447 -5.255807,-0.388022 z M 80.392628,45.580788 C 79.805065,44.049623 82.661353,39 84.11501,39 c 1.622368,0 0.986449,6.747089 -0.696797,7.393011 -2.205391,0.846288 -2.41026,0.79129 -3.025585,-0.812223 z m 15.274039,0.752545 C 94.729329,45.395996 94.832007,39 95.784392,39 c 1.258492,0 4.391568,5.906281 3.71434,7.002052 -0.703225,1.137842 -2.840719,1.322627 -3.832065,0.331281 z M 111.85546,45.25 c -2.38796,-2.873065 -5.31677,-9.122019 -4.60772,-9.831075 1.44642,-1.44642 12.387,8.745026 11.2912,10.518062 -1.02782,1.663047 -5.0761,1.246929 -6.68348,-0.686987 z"
       id="path4727"
       inkscape:connector-curvature="0" />
    <path
       style="fill:#4f49c7"
       d="M 46.082331,206.75 C 44.946102,203.80527 4.2032223,110.25515 2.6392834,107 1.7033134,105.05189 1.705059,103.94811 2.6471909,102 3.6788153,99.866839 28.836583,42.241871 42.594036,10.5 L 46.928202,0.5 92.214101,0.28991258 137.5,0.07982515 157.5,50.223059 c 11,27.578778 20.47031,51.073321 21.04514,52.210091 0.72684,1.43741 0.72684,2.70013 0,4.14629 -0.57483,1.1437 -10.04514,24.63432 -21.04514,52.20138 l -20,50.12194 -45.274751,0.0486 L 46.950498,209 Z m 67.694759,-20 c 0.66171,-0.80935 0.71484,-3.17212 0.1507,-6.70248 -0.70695,-4.42409 -0.57513,-5.77973 0.69892,-7.18753 1.16905,-1.29179 1.39508,-2.77155 0.88473,-5.79228 -0.37701,-2.23148 -1.09388,-4.30965 -1.59306,-4.61815 -0.49918,-0.30851 -3.61002,0.42442 -6.91299,1.62875 -5.90074,2.15151 -6.00539,2.2558 -6.00539,5.98425 0,3.52335 1.96877,6.93744 4.00053,6.93744 0.47172,0 1.37148,2.475 1.99947,5.5 0.98549,4.74706 1.45757,5.5 3.44845,5.5 1.26866,0 2.76655,-0.5625 3.32864,-1.25 z m -40.17843,-5.05148 c 0.684823,-2.69437 2.357204,-5.85504 3.810862,-7.20225 C 79.23952,172.80029 80,171.07509 80,168.6196 80,165.31963 79.719719,165.03883 74.462487,163.07185 71.416855,161.93233 68.294428,161 67.52376,161 c -2.125555,0 -3.165654,8.50096 -1.271811,10.39481 1.188077,1.18807 1.284329,2.53443 0.504697,7.05962 -1.078959,6.26257 0.04299,8.86657 3.594986,8.34383 1.498242,-0.2205 2.344832,-1.55014 3.247028,-5.09974 z M 45.711576,156.63911 C 48.620209,152.87255 51,149.19749 51,148.47233 c 0,-0.72517 -1.35,-2.66848 -3,-4.31848 -1.65,-1.65 -3,-3.45009 -3,-4.0002 0,-1.67594 -5.119405,-7.19789 -6.107191,-6.5874 -1.563113,0.96605 -10.894813,15.26182 -10.861006,16.63859 0.05701,2.32176 3.014534,5.29516 5.266881,5.29516 1.822982,0 2.144857,0.48173 1.872812,2.80295 -0.378386,3.22857 1.436187,5.91925 3.698119,5.48364 0.854445,-0.16455 3.933328,-3.38092 6.841961,-7.14748 z M 39.022236,149.25 c 0.02926,-0.98697 3.926655,-5.95984 3.955528,-5.04705 0.04493,1.4203 -2.32446,5.79705 -3.138279,5.79705 -0.461717,0 -0.829479,-0.3375 -0.817249,-0.75 z m 105.914934,10 c 1.14528,-1.5125 2.97794,-3.80073 4.07258,-5.08495 2.49657,-2.92897 2.54803,-5.79617 0.12728,-7.09171 -1.06525,-0.57011 -2.11743,-2.56515 -2.45725,-4.65921 -0.724,-4.4615 -3.21623,-7.41413 -6.25804,-7.41413 -2.88905,0 -7.48939,3.85355 -9.8638,8.26256 l -1.8429,3.42205 5.76364,7.6577 c 3.17,4.21173 6.35146,7.65769 7.0699,7.65769 0.71844,0 2.24331,-1.2375 3.38859,-2.75 z m -37.22678,-8.71769 c 12.81202,-5.86554 25.8773,-23.60227 30.96194,-42.03231 1.9595,-7.10247 2.76865,-27.438491 1.49845,-37.659557 C 137.4985,49.337051 123.69716,27.899218 107.34256,19.847878 99.209888,15.844176 88.392184,14.871948 79.792747,17.371873 64.042042,21.950727 49.501563,38.746784 42.858731,60.035243 40.807253,66.609671 40.52768,69.527606 40.514718,84.5 c -0.0097,11.160951 0.458563,18.8891 1.363208,22.5 5.785958,23.0947 23.096594,43.50386 39.122074,46.12475 8.082989,1.32193 20.87144,0.0807 26.71039,-2.59244 z M 109,132.46016 c 0,-0.29691 0.90915,-2.32191 2.02032,-4.5 C 112.73594,124.59728 113.52145,124 116.22853,124 h 3.18789 L 115,128.5 c -4.01899,4.09505 -6,5.40257 -6,3.96016 z M 65.482075,127.98164 61.594104,124 h 2.753975 c 2.217896,0 3.047429,0.70234 4.261529,3.60809 0.829155,1.98444 1.339453,3.77618 1.133996,3.98164 -0.205457,0.20546 -2.123145,-1.41818 -4.261529,-3.60809 z M 81.5,127 c -1.477192,-2.85658 -1.454516,-3 0.47432,-3 1.584089,0 2.02568,0.65399 2.02568,3 0,1.65 -0.213444,3 -0.47432,3 -0.260876,0 -1.172432,-1.35 -2.02568,-3 z m 13.946806,1.72197 C 94.47132,126.1799 95.651755,124 98.003799,124 c 2.120901,0 2.016811,0.56468 -0.916517,4.97197 -0.842016,1.26512 -1.072552,1.22999 -1.640476,-0.25 z M 53.527142,105.75 c -1.443643,-6.357016 -2.480869,-11.330338 -2.502696,-12 -0.04334,-1.329755 10.008344,-0.847544 10.422499,0.5 0.211297,0.6875 0.640274,4.0625 0.953283,7.5 L 62.969335,108 H 58.50372 c -3.812946,0 -4.540295,-0.32885 -4.976578,-2.25 z m 21.090188,-0.5 c -0.297869,-1.5125 -0.834718,-4.8875 -1.192999,-7.5 L 72.772912,93 H 78.386456 84 v 7.5 7.5 h -4.420545 c -4.024453,0 -4.469071,-0.24641 -4.962125,-2.75 z m 20.797263,1.38803 c -0.287451,-0.74909 -0.385828,-4.01159 -0.218615,-7.250002 L 95.5,93.5 l 6.34638,-0.300219 6.34638,-0.300219 -0.66245,4.300219 C 105.71302,108.9965 106.32872,108 100.85732,108 c -3.229311,0 -5.099693,-0.46804 -5.442727,-1.36197 z M 118.52879,101.75 c 0.90978,-9.052917 0.8003,-8.902124 6.21101,-8.555208 5.33688,0.342182 5.31928,0.285585 3.12673,10.055208 l -1.06601,4.75 h -4.44992 -4.44991 z M 51.60968,77.177467 C 51.068768,76.302252 53.485839,63.640947 54.510263,61.983395 54.844537,61.442528 56.913822,61 59.108673,61 h 3.99064 l -0.608006,6.25 C 61.428018,78.180067 61.527706,78 56.539965,78 54.107903,78 51.889275,77.62986 51.60968,77.177467 Z M 73.398489,72.80699 C 74.946962,60.564931 74.71654,61 79.651733,61 h 4.429152 L 83.790442,69.25 83.5,77.5 l -5.386391,0.30699 -5.38639,0.306989 z m 22.020999,3.843795 c -0.284758,-0.742068 -0.383135,-4.454568 -0.218615,-8.25 L 95.5,61.5 h 5 5 l 1.20096,7 c 0.66052,3.85 1.01215,7.5625 0.78138,8.25 -0.59873,1.78377 -11.374292,1.695143 -12.062852,-0.09922 z m 24.302352,0.650306 c -0.25264,-0.4406 -0.76919,-3.643976 -1.14789,-7.118614 -0.3787,-3.474638 -0.94628,-6.989184 -1.2613,-7.810103 -0.46869,-1.2214 0.31388,-1.436238 4.3073,-1.182477 L 126.5,61.5 l 1.20234,4.871755 c 0.66128,2.679465 1.33628,6.279465 1.5,8 0.29146,3.063061 0.20057,3.134519 -4.36175,3.429336 -2.56267,0.1656 -4.86611,-0.0594 -5.11875,-0.5 z M 64,44.747638 c 0,-1.679094 4.740357,-6.340615 5.586943,-5.494028 0.327157,0.327156 -0.01199,1.860928 -0.75367,3.408381 C 67.401087,45.650148 64,47.11778 64,44.747638 Z m 17,0.526825 c 0,-0.490712 0.688229,-1.765712 1.529398,-2.833333 1.481064,-1.879783 1.520569,-1.864596 1.25,0.480542 C 83.521583,45.156275 81,47.290822 81,45.274463 Z m 14.666667,0.05887 C 94.646345,44.313011 94.874292,41 95.964816,41 96.855869,41 99,44.132473 99,45.434259 c 0,0.786824 -2.521942,0.710465 -3.333333,-0.100926 z M 112.57848,45.25 C 111.83867,44.51495 109,38.203632 109,37.293847 c 0,-0.254048 1.8,0.963721 4,2.706153 2.2,1.742432 4,3.805245 4,4.584029 0,1.484847 -3.12379,1.955354 -4.42152,0.665971 z"
       id="path4725"
       inkscape:connector-curvature="0" />
    <path
       style="fill:#3d46ca"
       d="M 46.082331,206.75 C 44.946102,203.80527 4.2032223,110.25515 2.6392834,107 1.7033134,105.05189 1.705059,103.94811 2.6471909,102 3.6788153,99.866839 28.836583,42.241871 42.594036,10.5 L 46.928202,0.5 92.214101,0.28991258 137.5,0.07982515 157.5,50.223059 c 11,27.578778 20.47031,51.073321 21.04514,52.210091 0.72684,1.43741 0.72684,2.70013 0,4.14629 -0.57483,1.1437 -10.04514,24.63432 -21.04514,52.20138 l -20,50.12194 -45.274751,0.0486 L 46.950498,209 Z m 67.763559,-18.35461 c 2.11565,-1.48186 2.23951,-2.08443 1.61916,-7.87711 -0.44737,-4.17756 -0.30322,-6.50026 0.43161,-6.95441 1.55175,-0.95904 1.37623,-8.80841 -0.24659,-11.02775 -1.58022,-2.16108 -4.50258,-1.81879 -12.025,1.40847 l -4.874926,2.09144 0.656773,4.10723 C 100.21691,175.20869 101.64405,178 103.42389,178 c 0.76279,0 1.64884,1.57416 2.03016,3.60676 1.59288,8.4908 3.6202,10.13081 8.39184,6.78863 z M 72.803555,187.7367 c 0.576644,-0.69481 1.600288,-3.45487 2.274763,-6.13345 0.789835,-3.13672 1.856713,-5.03501 2.997436,-5.33331 1.857904,-0.48585 4.635668,-9.30982 3.506072,-11.13754 -0.327184,-0.5294 -3.812108,-2.19191 -7.744275,-3.69448 -6.871437,-2.62572 -7.201652,-2.66047 -8.493473,-0.8938 C 64.604835,161.5551 64,163.38445 64,164.60934 c 0,1.2249 -0.25088,2.88087 -0.55751,3.67993 -0.306631,0.79907 0.148977,2.15934 1.012462,3.02282 1.260437,1.26044 1.44444,2.92066 0.933266,8.42069 -0.605902,6.51927 -0.521839,6.90589 1.737538,7.99129 3.166337,1.52109 4.423571,1.52388 5.677799,0.0126 z M 45.979289,158.36425 C 49.309095,154.14123 52,149.71908 52,148.47 c 0,-1.24217 -1.35,-3.70367 -3,-5.47 -1.65,-1.76633 -3,-3.47357 -3,-3.79388 0,-0.3203 -1.0125,-2.06963 -2.25,-3.88741 -3.60465,-5.2949 -5.542779,-4.44297 -11.5,5.05498 C 29.3625,144.97741 27,149.49249 27,150.40722 27,152.76181 29.966776,157 31.61501,157 32.376754,157 33,157.83931 33,158.86514 33,161.24018 36.703775,166 38.551869,166 c 0.77369,0 4.116029,-3.43609 7.42742,-7.63575 z M 145.41699,160.75 c 1.42712,-1.7875 3.4319,-4.15 4.45507,-5.25 3.05458,-3.28397 3.3064,-6.42719 0.70968,-8.85827 -1.25821,-1.17795 -2.58763,-3.76745 -2.95426,-5.75444 -1.1083,-6.00656 -5.88834,-8.838 -10.71054,-6.34434 C 133.44847,136.33657 128,143.46485 128,146.20907 128,148.62865 139.62602,164 141.45605,164 c 0.75139,0 2.53381,-1.4625 3.96094,-3.25 z m -47.52018,-6.77189 c 8.45707,-1.09777 13.9539,-3.89099 21.4664,-10.9082 8.90924,-8.32188 16.72068,-21.88671 20.0889,-34.88508 2.50058,-9.650071 2.22969,-37.348292 -0.45973,-47.005828 C 133.05162,39.846109 118.70927,22.622408 102.28155,17.093051 86.438265,11.760409 68.880052,17.677763 56.877119,32.394954 50.887893,39.73854 43.616614,54.075223 41.354852,63 c -2.342017,9.241454 -2.282448,36.0109 0.100136,45 4.774846,18.01471 16.616583,34.91732 29.72279,42.42559 3.935024,2.2543 9.325257,3.55366 18.322222,4.41673 0.55,0.0528 4.328564,-0.33613 8.39681,-0.86421 z M 111.50363,129 c 0.96406,-3.2519 2.40408,-5 4.11881,-5 2.16345,0 1.63586,1.38256 -1.7412,4.56291 -3.11704,2.93547 -3.11835,2.93571 -2.37761,0.43709 z m -45.499926,-1.49606 c -2.428294,-2.5848 -2.135335,-4.688 0.364065,-2.61368 C 67.547561,125.8694 69.33644,130 68.580694,130 c -0.127636,0 -1.287282,-1.12323 -2.57699,-2.49606 z m 15.693213,-0.89707 c -0.409197,-1.04122 -0.508402,-2.12872 -0.220456,-2.41666 0.91206,-0.91206 1.714561,0.58256 1.332392,2.48152 -0.350243,1.74033 -0.403729,1.73721 -1.111936,-0.0649 z M 96,126 c 0,-1.13148 0.666667,-2 1.535184,-2 1.225306,0 1.319129,0.4037 0.464816,2 -0.588702,1.1 -1.279535,2 -1.535184,2 C 96.209167,128 96,127.1 96,126 Z M 54.495283,106.75 c -0.813529,-2.30098 -2.44611,-10.229858 -2.470837,-12 -0.0192,-1.374768 0.820574,-1.75 3.916537,-1.75 2.167541,0 4.137155,0.3375 4.376921,0.75 0.239767,0.4125 0.752141,3.7875 1.138611,7.5 l 0.702673,6.75 h -3.610979 c -1.986411,0 -3.809809,-0.56237 -4.052926,-1.25 z m 21.108845,0.41848 C 75.32148,106.71115 74.78278,103.33615 74.407016,99.668483 L 73.72381,93 H 78.361905 83 v 7.5 7.5 h -3.440983 c -1.892541,0 -3.672241,-0.37418 -3.954889,-0.83152 z M 96.20619,100.75 96.5,93.5 l 5.38561,-0.306963 5.38561,-0.306962 -0.6929,6.124486 C 105.58667,107.77553 105.43113,108 100.3492,108 h -4.436819 z m 22.36087,4.5 c 0.28439,-1.5125 0.84581,-4.775 1.24761,-7.25 0.72547,-4.468672 0.76095,-4.502188 5.09602,-4.814245 l 4.36547,-0.314245 -0.66737,4.314245 c -0.36705,2.372835 -1.13909,5.776745 -1.71563,7.564245 -0.94551,2.93144 -1.43029,3.25 -4.94571,3.25 -3.71045,0 -3.87264,-0.13195 -3.38039,-2.75 z M 52.531441,72.75 c 1.517982,-9.122015 2.673385,-11.221825 6.368809,-11.574565 l 3.40025,-0.324564 -0.65025,6.221256 C 61.292612,70.493817 61,74.127371 61,75.146691 61,76.681799 60.212288,77 56.412102,77 H 51.824204 Z M 74.388467,70.512568 C 75.299594,61.61945 75.639419,61 79.606989,61 H 83 v 8 8 H 78.361905 73.72381 Z M 96,69 v -8 h 4.02475 c 4.65242,0 5.27764,0.999247 6.41328,10.25 L 107.14391,77 H 101.57196 96 Z m 23.57579,2.859786 c -0.37503,-2.827118 -0.94543,-6.458004 -1.26756,-8.068636 -0.5748,-2.874003 -0.51342,-2.9225 3.30304,-2.609786 3.45577,0.28316 4.01462,0.708318 5.01939,3.818636 0.62186,1.925 1.44892,5.4125 1.8379,7.75 L 129.1758,77 h -4.45907 -4.45907 z M 65.5,43 c 0.995486,-1.1 2.206063,-2 2.690171,-2 0.484108,0 0.398531,0.9 -0.190171,2 -0.588702,1.1 -1.799279,2 -2.690171,2 C 63.880147,45 63.902469,44.765252 65.5,43 Z M 96,43.440983 c 0,-0.857459 0.45,-1.280902 1,-0.940983 0.55,0.339919 1,1.041476 1,1.559017 C 98,44.576558 97.55,45 97,45 96.45,45 96,44.298442 96,43.440983 Z m 15.44308,-1.551048 c -1.67884,-3.246518 -0.9036,-3.269398 2.80692,-0.08284 C 116.38694,43.642277 116.50417,45 114.52568,45 c -0.81088,0 -2.19804,-1.399529 -3.0826,-3.110065 z"
       id="path4723"
       inkscape:connector-curvature="0" />
    <path
       style="fill:#2c2e4a"
       d="M 46.082331,206.75 C 44.946102,203.80527 4.2032223,110.25515 2.6392834,107 1.7033134,105.05189 1.705059,103.94811 2.6471909,102 3.6788153,99.866839 28.836583,42.241871 42.594036,10.5 L 46.928202,0.5 92.214101,0.28991258 137.5,0.07982515 157.5,50.223059 c 11,27.578778 20.47031,51.073321 21.04514,52.210091 0.72684,1.43741 0.72684,2.70013 0,4.14629 -0.57483,1.1437 -10.04514,24.63432 -21.04514,52.20138 l -20,50.12194 -45.274751,0.0486 L 46.950498,209 Z M 156.14332,155.5 c 10.88193,-26.95 19.78743,-49.9 19.78998,-51 0.003,-1.1 -8.89174,-24.05 -19.76511,-51 L 136.39843,4.5 H 92.110816 47.823201 L 26.43569,53.5 C 14.672559,80.45 5.037339,103.33941 5.0240897,104.36535 c -0.018639,1.4433 22.8842083,55.04903 40.9707823,95.89502 l 2.107887,4.76036 44.127613,-0.26036 L 136.35798,204.5 Z"
       id="path4721"
       inkscape:connector-curvature="0" />
  </g>
</svg>
